<?xml version="1.0" encoding="UTF-8" standalone="no"?>
<!-- Created with Inkscape (http://www.inkscape.org/) -->

<svg
   width="204.85089mm"
   height="158.56343mm"
   viewBox="0 0 204.85089 158.56343"
   version="1.1"
   id="svg5"
   inkscape:version="1.1 (c68e22c387, 2021-05-23)"
   sodipodi:docname="Partially Ordered.svg"
   xmlns:inkscape="http://www.inkscape.org/namespaces/inkscape"
   xmlns:sodipodi="http://sodipodi.sourceforge.net/DTD/sodipodi-0.dtd"
   xmlns="http://www.w3.org/2000/svg"
   xmlns:svg="http://www.w3.org/2000/svg">
  <sodipodi:namedview
     id="namedview7"
     pagecolor="#ffffff"
     bordercolor="#666666"
     borderopacity="1.0"
     inkscape:pageshadow="2"
     inkscape:pageopacity="0.0"
     inkscape:pagecheckerboard="0"
     inkscape:document-units="mm"
     showgrid="false"
     fit-margin-top="0"
     fit-margin-left="0"
     fit-margin-right="0"
     fit-margin-bottom="0"
     inkscape:zoom="0.52382155"
     inkscape:cx="377.0368"
     inkscape:cy="474.3982"
     inkscape:window-width="1288"
     inkscape:window-height="745"
     inkscape:window-x="-8"
     inkscape:window-y="-8"
     inkscape:window-maximized="1"
     inkscape:current-layer="layer1" />
  <defs
     id="defs2">
    <pattern
       id="EMFhbasepattern"
       patternUnits="userSpaceOnUse"
       width="6"
       height="6"
       x="0"
       y="0" />
  </defs>
  <g
     inkscape:label="Layer 1"
     inkscape:groupmode="layer"
     id="layer1"
     transform="translate(-5.1612928,-23.254004)">
    <path
       style="fill:#ffffff;fill-opacity:1;fill-rule:evenodd;stroke:none;stroke-width:0.264583"
       d="m 77.885078,164.77095 c 0,-9.03503 11.05494,-16.3777 24.675722,-16.3777 v 0 c 13.64808,0 24.67573,7.34267 24.67573,16.3777 0,0 0,0 0,0 v 0 c 0,9.06232 -11.02765,16.37769 -24.67573,16.37769 0,0 0,0 0,0 v 0 c -13.620782,0 -24.675722,-7.31537 -24.675722,-16.37769 0,0 0,0 0,0 z"
       id="path827" />
    <path
       style="fill:#000000;fill-opacity:1;fill-rule:nonzero;stroke:#000000;stroke-width:0.0272962px;stroke-linecap:butt;stroke-linejoin:round;stroke-miterlimit:4;stroke-dasharray:none;stroke-opacity:1"
       d="m 77.257268,164.82554 c -0.0273,-0.0273 -0.0273,-0.0546 0,-0.0819 l 0.13648,-1.66507 0.35485,-1.74695 c 0,-0.0273 0.0273,-0.0546 0.0273,-0.10919 l 0.62782,-1.55587 0.84618,-1.55589 1.09184,-1.52858 1.28292,-1.3921 1.50129,-1.31022 1.61048,-1.20103 3.73957,-2.04721 c 0.0273,0 0.0546,-0.0273 0.0819,-0.0273 l 4.17631,-1.52859 c 0.0273,0 0.0546,-0.0273 0.10918,-0.0273 l 4.64035,-0.95537 2.51125,-0.24566 2.565832,-0.10919 2.56584,0.0819 2.48395,0.27296 4.69494,0.95537 c 0.0273,0 0.0819,0.0273 0.10919,0.0273 l 4.20361,1.52859 c 0.0273,0 0.0546,0.0273 0.0819,0.0273 l 3.65769,1.99262 1.66506,1.20103 1.474,1.33751 1.25562,1.36481 1.09185,1.50128 0.87348,1.58318 0.6551,1.61047 c 0,0.0546 0.0273,0.0819 0.0273,0.10919 l 0.35485,1.63777 0.13648,1.77425 c 0,0.0273 0,0.0546 0,0.0819 l -0.13648,1.66506 -0.35485,1.74696 c 0,0.0273 -0.0273,0.0546 -0.0273,0.0819 l -0.62781,1.58317 -0.84618,1.58318 -1.09185,1.50129 -1.28291,1.4194 -1.474,1.28292 -1.61047,1.22833 -3.73958,2.04721 c -0.0273,0 -0.0546,0.0273 -0.0819,0.0273 l -4.20361,1.50128 -4.74953,0.98266 -2.48395,0.24567 -2.59314,0.0819 -2.53854,-0.0819 -2.511252,-0.24567 -4.69494,-0.95536 c -0.0273,0 -0.0819,-0.0273 -0.10918,-0.0273 l -4.17631,-1.50128 c -0.0273,0 -0.0546,-0.0273 -0.0819,-0.0273 l -3.65769,-1.99262 -1.66506,-1.22833 -1.474,-1.28292 -1.28291,-1.4194 -1.09185,-1.47399 -0.87348,-1.58318 -0.65511,-1.66506 c 0,-0.0273 -0.0273,-0.0546 -0.0273,-0.0819 l -0.35485,-1.63777 z m 1.4194,1.47399 0.35485,1.63777 -0.0273,-0.0819 0.60052,1.50129 0.76429,1.4194 0.98266,1.36481 1.17373,1.31021 1.41941,1.22833 1.50129,1.11914 3.65768,1.99262 -0.0819,-0.0273 4.17631,1.50129 -0.10918,-0.0273 4.58575,0.95537 2.402062,0.21836 2.48395,0.0819 2.48396,-0.0546 2.37476,-0.24566 4.53116,-0.92807 4.20361,-1.50129 -0.0819,0.0273 3.5758,-1.93802 1.55588,-1.14644 1.36481,-1.20103 1.17373,-1.31022 0.98267,-1.33751 0.79158,-1.4194 0.62782,-1.58318 -0.0273,0.0819 0.35485,-1.52859 0.13648,-1.66506 v 0.0819 l -0.13648,-1.55588 -0.35485,-1.63777 0.0273,0.0819 -0.60052,-1.474 -0.76429,-1.44669 -0.98266,-1.36481 -1.20104,-1.31022 -1.3648,-1.22832 -1.50129,-1.09185 -3.65769,-1.99262 0.0819,0.0273 -4.20361,-1.52859 0.10919,0.0273 -4.58576,-0.95537 -2.37476,-0.24566 -2.51125,-0.0819 -2.45665,0.0819 -2.402062,0.24566 -4.64035,0.95537 0.10918,-0.0273 -4.17631,1.52859 0.0819,-0.0273 -3.5758,1.93803 -1.55588,1.14644 -1.3921,1.20103 -1.17374,1.25562 -0.98266,1.3921 -0.79159,1.41941 -0.62781,1.55588 0.0273,-0.0819 -0.35485,1.52858 -0.13648,1.66507 v -0.0819 z"
       id="path829" />
    <text
       xml:space="preserve"
       style="font-style:normal;font-variant:normal;font-weight:400;font-size:16.1561px;line-height:125%;font-family:'微軟正黑體';text-align:start;letter-spacing:0px;word-spacing:0px;text-anchor:start;fill:#000000;fill-opacity:1;stroke:none;stroke-width:0.264583"
       x="85.571548"
       y="168.83371"
       id="text835"><tspan
         sodipodi:role="line"
         x="85.571548"
         y="168.83371"
         id="tspan833"
         style="stroke-width:0.264583"><tspan
           dx="0"
           dy="0"
           style="font-style:normal;font-variant:normal;font-weight:400;font-size:16.1561px;font-family:'微軟正黑體';fill:#000000;stroke-width:0.264583"
           id="tspan831">[0, 0]</tspan></tspan></text>
    <path
       style="fill:#ffffff;fill-opacity:1;fill-rule:evenodd;stroke:none;stroke-width:0.264583"
       d="m 5.8232224,99.260166 c 0,-9.03503 10.9730536,-16.3777 24.4573556,-16.3777 v 0 c 13.5116,0 24.45736,7.34267 24.45736,16.3777 0,0 0,0 0,0 v 0 c 0,9.062324 -10.94576,16.377694 -24.45736,16.377694 0,0 0,0 0,0 v 0 c -13.484302,0 -24.4573556,-7.31537 -24.4573556,-16.377694 0,0 0,0 0,0 z"
       id="path837" />
    <path
       style="fill:#000000;fill-opacity:1;fill-rule:nonzero;stroke:#000000;stroke-width:0.0272962px;stroke-linecap:butt;stroke-linejoin:round;stroke-miterlimit:4;stroke-dasharray:none;stroke-opacity:1"
       d="m 5.1954084,99.314756 c -0.02729,-0.0273 -0.02729,-0.0546 0,-0.0819 l 0.136483,-1.66506 0.354849,-1.74696 c 0,-0.0273 0.0273,-0.0546 0.0273,-0.0819 l 0.600514,-1.55588 c 0,-0.0273 0.0273,-0.0546 0.05459,-0.0819 l 0.84618,-1.50128 1.037254,-1.50129 1.282919,-1.4194 1.4739936,-1.31022 1.610471,-1.20103 3.684982,-2.04721 c 0.0273,0 0.05459,-0.0273 0.08189,-0.0273 l 4.176313,-1.52858 c 0.02729,0 0.05459,-0.0273 0.109183,-0.0273 l 4.585758,-0.95536 2.48395,-0.24567 2.53854,-0.10918 2.53854,0.0819 2.48395,0.27297 4.64035,0.95536 c 0.0546,0 0.0819,0.0273 0.10919,0.0273 l 4.14901,1.52858 c 0.0273,0 0.0546,0.0273 0.0819,0.0273 l 3.63039,1.99262 1.63777,1.20103 1.47399,1.33751 1.25562,1.36481 1.09185,1.50129 0.87348,1.58317 0.62781,1.63777 c 0,0.0273 0.0273,0.0546 0.0273,0.0819 l 0.35484,1.63777 0.13648,1.77425 c 0,0.0273 0,0.0546 0,0.0819 l -0.13648,1.665074 -0.35484,1.74695 c 0,0.0273 -0.0273,0.0546 -0.0273,0.0819 l -0.60052,1.58317 -0.84618,1.58318 -1.09184,1.50129 -1.28292,1.4194 -1.474,1.28292 -1.58317,1.22833 c -0.0273,0 -0.0546,0.0273 -0.0819,0.0546 l -3.63039,1.99262 c -0.0273,0 -0.0546,0.0273 -0.0819,0.0273 l -4.14901,1.50129 c -0.0273,0 -0.0819,0.0273 -0.10919,0.0273 l -4.58576,0.95537 -2.48394,0.24566 -2.56584,0.0819 -2.51125,-0.0819 -2.48395,-0.24566 -4.640348,-0.95537 -4.285496,-1.52858 c -0.02729,0 -0.05459,-0.0273 -0.08189,-0.0546 l -3.603093,-1.99262 -1.665065,-1.20103 -1.4466966,-1.31021 -1.28292,-1.39211 -1.064548,-1.50128 -0.873477,-1.55589 c -0.0273,-0.0273 -0.05459,-0.0546 -0.05459,-0.0819 l -0.600514,-1.58317 c 0,-0.0273 -0.0273,-0.0546 -0.0273,-0.0819 l -0.354849,-1.63777 z m 1.419403,1.473994 0.354848,1.63777 -0.02729,-0.0819 0.600514,1.58318 -0.05459,-0.0819 0.818882,1.4467 0.955366,1.33751 1.1737356,1.31022 1.392103,1.22832 1.501288,1.11915 3.603093,1.99262 -0.08189,-0.0273 4.067127,1.47399 4.53116,0.95537 2.37477,0.21837 2.45665,0.0819 2.45665,-0.0546 2.37477,-0.24566 4.58575,-0.95537 -0.10918,0.0273 4.14901,-1.50129 -0.0819,0.0273 3.63039,-1.99262 -0.0819,0.0546 1.52858,-1.14644 1.36481,-1.20103 1.17374,-1.31022 0.98266,-1.33751 0.79159,-1.4194 0.60051,-1.58318 -0.0273,0.0819 0.35484,-1.52858 0.13648,-1.665074 v 0.0819 l -0.13648,-1.55588 -0.35484,-1.63777 0.0273,0.0819 -0.57322,-1.47399 -0.76429,-1.4467 -0.98266,-1.36481 -1.20103,-1.31021 -1.36481,-1.22833 -1.47399,-1.09185 -3.63039,-1.99262 0.0819,0.0273 -4.14901,-1.52859 0.10918,0.0273 -4.53116,-0.95536 -2.37476,-0.24567 -2.48395,-0.0819 -2.42936,0.0819 -2.37477,0.24567 -4.58575,0.95536 0.109186,-0.0273 -4.176313,1.52859 0.08189,-0.0546 -3.521204,1.96532 -1.55588,1.11914 -1.364808,1.22833 -1.1737336,1.25562 -0.982663,1.39211 -0.846179,1.50129 0.05459,-0.0819 -0.600514,1.55588 0.02729,-0.0819 -0.354848,1.52858 -0.136483,1.66507 v -0.0819 z"
       id="path839" />
    <text
       xml:space="preserve"
       style="font-style:normal;font-variant:normal;font-weight:400;font-size:16.1561px;line-height:125%;font-family:'微軟正黑體';text-align:start;letter-spacing:0px;word-spacing:0px;text-anchor:start;fill:#000000;fill-opacity:1;stroke:none;stroke-width:0.264583"
       x="13.112972"
       y="103.70631"
       id="text845"><tspan
         sodipodi:role="line"
         x="13.112972"
         y="103.70631"
         id="tspan843"
         style="stroke-width:0.264583"><tspan
           dx="0"
           dy="0"
           style="font-style:normal;font-variant:normal;font-weight:400;font-size:16.1561px;font-family:'微軟正黑體';fill:#000000;stroke-width:0.264583"
           id="tspan841">[1, 0]</tspan></tspan></text>
    <path
       style="fill:#ffffff;fill-opacity:1;fill-rule:evenodd;stroke:none;stroke-width:0.264583"
       d="m 159.99192,112.36232 c 0,-9.03502 11.05494,-16.377694 24.67573,-16.377694 v 0 c 13.64807,0 24.67572,7.342674 24.67572,16.377694 0,0 0,0 0,0 v 0 c 0,9.06233 -11.02765,16.3777 -24.67572,16.3777 0,0 0,0 0,0 v 0 c -13.62079,0 -24.67573,-7.31537 -24.67573,-16.3777 0,0 0,0 0,0 z"
       id="path847" />
    <path
       style="fill:#000000;fill-opacity:1;fill-rule:nonzero;stroke:#000000;stroke-width:0.0272962px;stroke-linecap:butt;stroke-linejoin:round;stroke-miterlimit:4;stroke-dasharray:none;stroke-opacity:1"
       d="m 159.36411,112.41692 c -0.0273,-0.0273 -0.0273,-0.0546 0,-0.0819 l 0.13648,-1.66507 0.35485,-1.74695 c 0,-0.0273 0.0273,-0.0546 0.0273,-0.10919 l 0.62781,-1.55588 0.84618,-1.55588 1.09185,-1.52858 1.28291,-1.39211 1.50129,-1.31021 1.61048,-1.20103 3.73957,-2.047224 c 0.0273,0 0.0546,-0.0273 0.0819,-0.0273 l 4.17631,-1.52859 c 0.0273,0 0.0546,-0.0273 0.10918,-0.0273 l 4.64035,-0.95537 2.51125,-0.24566 2.56584,-0.10919 2.56584,0.0819 2.48396,0.27296 4.69492,0.95537 c 0.0273,0 0.0819,0.0273 0.1092,0.0273 l 4.20359,1.52859 c 0.0273,0 0.0546,0.0273 0.0819,0.0273 l 3.65768,1.992624 1.66508,1.20104 1.47399,1.33751 1.25563,1.3648 1.09183,1.50129 0.8735,1.58318 0.65511,1.61047 c 0,0.0546 0.0273,0.0819 0.0273,0.10919 l 0.35486,1.63777 0.13648,1.77425 c 0,0.0273 0,0.0546 0,0.0819 l -0.13648,1.66506 -0.35486,1.74696 c 0,0.0273 -0.0273,0.0546 -0.0273,0.0819 l -0.62783,1.58318 -0.84617,1.58318 -1.09185,1.50129 -1.28292,1.4194 -1.47399,1.28292 -1.61049,1.22832 -3.73957,2.04722 c -0.0273,0 -0.0546,0.0273 -0.0819,0.0273 l -4.20359,1.50129 -4.74954,0.98266 -2.48395,0.24567 -2.59314,0.0819 -2.53854,-0.0819 -2.51125,-0.24567 -4.69494,-0.95536 c -0.0273,0 -0.0819,-0.0273 -0.10918,-0.0273 l -4.17631,-1.50129 c -0.0273,0 -0.0546,-0.0273 -0.0819,-0.0273 l -3.65768,-1.99262 -1.66507,-1.22833 -1.47399,-1.28292 -1.28292,-1.4194 -1.09185,-1.47399 -0.87348,-1.58318 -0.6551,-1.66507 c 0,-0.0273 -0.0273,-0.0546 -0.0273,-0.0819 l -0.35485,-1.63777 z m 1.4194,1.47399 0.35485,1.63777 -0.0273,-0.0819 0.60052,1.50129 0.76429,1.4194 0.98266,1.36481 1.17374,1.31021 1.4194,1.22833 1.50129,1.11914 3.65768,1.99262 -0.0819,-0.0273 4.17632,1.50128 -0.10919,-0.0273 4.58576,0.95536 2.40206,0.21837 2.48395,0.0819 2.48395,-0.0546 2.37477,-0.24567 4.53115,-0.92807 4.20362,-1.50128 -0.0819,0.0273 3.57579,-1.93803 1.55588,-1.14644 1.3648,-1.20103 1.17375,-1.31021 0.98266,-1.33751 0.79158,-1.4194 0.62783,-1.58318 -0.0273,0.0819 0.35486,-1.52859 0.13647,-1.66506 v 0.0819 l -0.13647,-1.55589 -0.35486,-1.63776 0.0273,0.0819 -0.60053,-1.47399 -0.7643,-1.4467 -0.98266,-1.3648 -1.20102,-1.31022 -1.3648,-1.22833 -1.5013,-1.09184 -3.65768,-1.992624 0.0819,0.0273 -4.20362,-1.52859 0.10919,0.0273 -4.58576,-0.95537 -2.37476,-0.24566 -2.51125,-0.0819 -2.45665,0.0819 -2.40206,0.24566 -4.64035,0.95537 0.10919,-0.0273 -4.17632,1.52859 0.0819,-0.0273 -3.57579,1.938034 -1.55589,1.14643 -1.3921,1.20103 -1.17374,1.25563 -0.98266,1.3921 -0.79158,1.4194 -0.62782,1.55588 0.0273,-0.0819 -0.35485,1.52858 -0.13648,1.66507 v -0.0819 z"
       id="path849" />
    <text
       xml:space="preserve"
       style="font-style:normal;font-variant:normal;font-weight:400;font-size:16.1561px;line-height:125%;font-family:'微軟正黑體';text-align:start;letter-spacing:0px;word-spacing:0px;text-anchor:start;fill:#000000;fill-opacity:1;stroke:none;stroke-width:0.264583"
       x="167.46059"
       y="116.42472"
       id="text855"><tspan
         sodipodi:role="line"
         x="167.46059"
         y="116.42472"
         id="tspan853"
         style="stroke-width:0.264583"><tspan
           dx="0"
           dy="0"
           style="font-style:normal;font-variant:normal;font-weight:400;font-size:16.1561px;font-family:'微軟正黑體';fill:#000000;stroke-width:0.264583"
           id="tspan851">[0, 1]</tspan></tspan></text>
    <path
       style="fill:#ffffff;fill-opacity:1;fill-rule:evenodd;stroke:none;stroke-width:0.264583"
       d="m 77.885078,40.300465 c 0,-9.035029 11.05494,-16.377695 24.675722,-16.377695 v 0 c 13.64808,0 24.67573,7.342666 24.67573,16.377695 0,0 0,0 0,0 v 0 c 0,9.062321 -11.02765,16.377691 -24.67573,16.377691 0,0 0,0 0,0 v 0 c -13.620782,0 -24.675722,-7.31537 -24.675722,-16.377691 0,0 0,0 0,0 z"
       id="path857" />
    <path
       style="fill:#000000;fill-opacity:1;fill-rule:nonzero;stroke:#000000;stroke-width:0.0272962px;stroke-linecap:butt;stroke-linejoin:round;stroke-miterlimit:4;stroke-dasharray:none;stroke-opacity:1"
       d="m 77.257268,40.355056 c -0.0273,-0.0273 -0.0273,-0.05459 0,-0.08189 l 0.13648,-1.665065 0.35485,-1.746954 c 0,-0.0273 0.0273,-0.05459 0.0273,-0.109186 l 0.62782,-1.555879 0.84618,-1.555883 1.09184,-1.528585 1.28292,-1.392102 1.50129,-1.310217 1.61048,-1.201031 3.73957,-2.047211 c 0.0273,0 0.0546,-0.0273 0.0819,-0.0273 l 4.17631,-1.528585 c 0.0273,0 0.0546,-0.0273 0.10918,-0.0273 l 4.64035,-0.955365 2.51125,-0.245666 2.565832,-0.109185 2.56584,0.08189 2.48395,0.272963 4.69494,0.955365 c 0.0273,0 0.0819,0.0273 0.10919,0.0273 l 4.20361,1.528585 c 0.0273,0 0.0546,0.0273 0.0819,0.0273 l 3.65769,1.992619 1.66506,1.201031 1.474,1.337511 1.25562,1.364809 1.09185,1.501288 0.87348,1.583176 0.6551,1.610474 c 0,0.05459 0.0273,0.08189 0.0273,0.109186 l 0.35485,1.637768 0.13648,1.774251 c 0,0.0273 0,0.05459 0,0.08189 l -0.13648,1.665066 -0.35485,1.746953 c 0,0.0273 -0.0273,0.05459 -0.0273,0.08189 l -0.62781,1.583169 -0.84618,1.58318 -1.09185,1.50129 -1.28291,1.4194 -1.474,1.28292 -1.61047,1.22833 -3.73958,2.04721 c -0.0273,0 -0.0546,0.0273 -0.0819,0.0273 l -4.20361,1.5013 -4.74953,0.98266 -2.48395,0.24566 -2.59314,0.0819 -2.53854,-0.0819 -2.511252,-0.24566 -4.69494,-0.95537 c -0.0273,0 -0.0819,-0.0273 -0.10918,-0.0273 l -4.17631,-1.5013 c -0.0273,0 -0.0546,-0.0273 -0.0819,-0.0273 l -3.65769,-1.99262 -1.66506,-1.22833 -1.474,-1.28292 -1.28291,-1.4194 -1.09185,-1.47399 -0.87348,-1.58318 -0.65511,-1.665059 c 0,-0.0273 -0.0273,-0.05459 -0.0273,-0.08189 l -0.35485,-1.637768 z m 1.4194,1.473992 0.35485,1.63777 -0.0273,-0.08189 0.60052,1.501288 0.76429,1.4194 0.98266,1.36481 1.17373,1.31022 1.41941,1.22832 1.50129,1.11914 3.65768,1.99262 -0.0819,-0.0273 4.17631,1.50129 -0.10918,-0.0273 4.58575,0.95537 2.402062,0.21837 2.48395,0.0819 2.48396,-0.0546 2.37476,-0.24566 4.53116,-0.92807 4.20361,-1.50129 -0.0819,0.0273 3.5758,-1.93802 1.55588,-1.14644 1.36481,-1.20103 1.17373,-1.31022 0.98267,-1.33751 0.79158,-1.419401 0.62782,-1.583177 -0.0273,0.08189 0.35485,-1.528585 0.13648,-1.665065 v 0.08189 l -0.13648,-1.555882 -0.35485,-1.637768 0.0273,0.08189 -0.60052,-1.473993 -0.76429,-1.446694 -0.98266,-1.364808 -1.20104,-1.310217 -1.3648,-1.228328 -1.50129,-1.091846 -3.65769,-1.992619 0.0819,0.0273 -4.20361,-1.528585 0.10919,0.0273 -4.58576,-0.955366 -2.37476,-0.245665 -2.51125,-0.08189 -2.45665,0.08189 -2.402062,0.245665 -4.64035,0.955366 0.10918,-0.0273 -4.17631,1.528585 0.0819,-0.0273 -3.5758,1.938028 -1.55588,1.146437 -1.3921,1.201031 -1.17374,1.255625 -0.98266,1.392103 -0.79159,1.419399 -0.62781,1.555882 0.0273,-0.08189 -0.35485,1.528585 -0.13648,1.665065 v -0.08189 z"
       id="path859" />
    <text
       xml:space="preserve"
       style="font-style:normal;font-variant:normal;font-weight:400;font-size:16.1561px;line-height:125%;font-family:'微軟正黑體';text-align:start;letter-spacing:0px;word-spacing:0px;text-anchor:start;fill:#000000;fill-opacity:1;stroke:none;stroke-width:0.264583"
       x="85.571548"
       y="44.362366"
       id="text865"><tspan
         sodipodi:role="line"
         x="85.571548"
         y="44.362366"
         id="tspan863"
         style="stroke-width:0.264583"><tspan
           dx="0"
           dy="0"
           style="font-style:normal;font-variant:normal;font-weight:400;font-size:16.1561px;font-family:'微軟正黑體';fill:#000000;stroke-width:0.264583"
           id="tspan861">[1, 1]</tspan></tspan></text>
    <path
       style="fill:#000000;fill-opacity:1;fill-rule:nonzero;stroke:#000000;stroke-width:0.0272962px;stroke-linecap:butt;stroke-linejoin:round;stroke-miterlimit:4;stroke-dasharray:none;stroke-opacity:1"
       d="m 124.88906,156.19995 36.54956,-30.08036 1.66506,2.01991 -36.54955,30.08037 z m 28.19693,-28.90663 11.19143,-1.82884 -3.93065,10.6455 c -0.24567,0.6824 -1.00996,1.03725 -1.69236,0.79159 -0.6824,-0.27296 -1.00996,-1.00996 -0.76429,-1.69236 l 3.13906,-8.5437 1.44669,1.74695 -8.98044,1.474 c -0.70969,0.10918 -1.3921,-0.38215 -1.50128,-1.09185 -0.10919,-0.7097 0.35485,-1.3921 1.09184,-1.50129 z"
       id="path867" />
    <path
       style="fill:#000000;fill-opacity:1;fill-rule:nonzero;stroke:#000000;stroke-width:0.0272962px;stroke-linecap:butt;stroke-linejoin:round;stroke-miterlimit:4;stroke-dasharray:none;stroke-opacity:1"
       d="m 41.035268,80.644186 36.54955,-30.08037 1.66507,2.01992 -36.54956,30.08037 z m 28.19693,-28.90663 11.19142,-1.82885 -3.93065,10.64551 c -0.24566,0.6824 -1.00995,1.03725 -1.69236,0.79159 -0.6824,-0.27297 -1.00995,-1.00996 -0.76429,-1.69237 l 3.13906,-8.54369 1.44669,1.74695 -8.98043,1.47399 c -0.7097,0.10919 -1.39211,-0.38214 -1.50129,-1.09184 -0.10918,-0.7097 0.35485,-1.39211 1.09185,-1.50129 z"
       id="path869" />
    <path
       style="fill:#000000;fill-opacity:1;fill-rule:nonzero;stroke:#000000;stroke-width:0.0272962px;stroke-linecap:butt;stroke-linejoin:round;stroke-miterlimit:4;stroke-dasharray:none;stroke-opacity:1"
       d="m 173.74918,94.401446 -41.8723,-41.29908 1.85614,-1.85614 41.84501,41.29908 z m -39.82509,-33.08294 -2.97528,-10.97306 11.00035,2.81151 c 0.7097,0.19107 1.11914,0.90077 0.95537,1.61047 -0.19108,0.68241 -0.90078,1.11914 -1.61048,0.92807 l -8.81666,-2.23828 1.58318,-1.61048 2.40206,8.78937 c 0.16378,0.6824 -0.24566,1.3921 -0.92807,1.58317 -0.7097,0.19108 -1.4194,-0.21837 -1.61047,-0.90077 z"
       id="path871" />
    <path
       style="fill:#000000;fill-opacity:1;fill-rule:nonzero;stroke:#000000;stroke-width:0.0272962px;stroke-linecap:butt;stroke-linejoin:round;stroke-miterlimit:4;stroke-dasharray:none;stroke-opacity:1"
       d="m 71.552368,162.53266 -41.8723,-41.29909 1.85613,-1.85613 41.84501,41.29908 z m -39.82509,-33.08294 -2.97529,-10.97306 11.00036,2.81151 c 0.7097,0.19107 1.11914,0.90077 0.95536,1.61047 -0.19107,0.6824 -0.90077,1.11914 -1.61047,0.92807 l -8.81666,-2.23829 1.58318,-1.61047 2.40206,8.78936 c 0.16378,0.68241 -0.24567,1.39211 -0.92807,1.58318 -0.7097,0.19108 -1.4194,-0.21837 -1.61047,-0.90077 z"
       id="path873" />
    <path
       style="fill:#000000;fill-opacity:1;fill-rule:nonzero;stroke:#000000;stroke-width:0.0272962px;stroke-linecap:butt;stroke-linejoin:round;stroke-miterlimit:4;stroke-dasharray:none;stroke-opacity:1"
       d="m 102.45162,143.0978 -1.14644,-80.086934 2.62043,-0.0273 1.14644,80.086934 z m -5.459232,-72.826154 5.568412,-9.88121 5.86868,9.71743 c 0.38215,0.62781 0.16378,1.4194 -0.43674,1.80155 -0.62781,0.38215 -1.4467,0.19107 -1.80155,-0.43674 l -4.69493,-7.8067 2.26558,-0.0273 -4.476572,7.91589 c -0.35485,0.65511 -1.17374,0.87348 -1.80155,0.51862 -0.62781,-0.35484 -0.84618,-1.17373 -0.49133,-1.80154 z"
       id="path875" />
  </g>
</svg>
