<?xml version="1.0" encoding="UTF-8" standalone="no"?>
<!-- Created with Inkscape (http://www.inkscape.org/) -->

<svg
   xmlns:dc="http://purl.org/dc/elements/1.1/"
   xmlns:cc="http://creativecommons.org/ns#"
   xmlns:rdf="http://www.w3.org/1999/02/22-rdf-syntax-ns#"
   xmlns:svg="http://www.w3.org/2000/svg"
   xmlns="http://www.w3.org/2000/svg"
   xmlns:sodipodi="http://sodipodi.sourceforge.net/DTD/sodipodi-0.dtd"
   xmlns:inkscape="http://www.inkscape.org/namespaces/inkscape"
   version="1.1"
   id="svg64"
   xml:space="preserve"
   width="673.82397"
   height="701.17731"
   viewBox="0 0 673.82394 701.17728"
   sodipodi:docname="4Element.svg"
   inkscape:version="0.92.5 (2060ec1f9f, 2020-04-08)"><metadata
     id="metadata70"><rdf:RDF><cc:Work
         rdf:about=""><dc:format>image/svg+xml</dc:format><dc:type
           rdf:resource="http://purl.org/dc/dcmitype/StillImage" /><dc:title></dc:title></cc:Work></rdf:RDF></metadata><defs
     id="defs68"><clipPath
       clipPathUnits="userSpaceOnUse"
       id="clipPath80"><path
         d="M 0,800 H 800 V 0 H 0 Z"
         id="path78"
         inkscape:connector-curvature="0" /></clipPath><clipPath
       clipPathUnits="userSpaceOnUse"
       id="clipPath94"><path
         d="m 171.346,512.648 c -14.222,-6.63 -24.03,-20.651 -24.03,-36.877 v 0 c 0,-22.621 19.057,-40.958 42.564,-40.958 v 0 c 13.595,0 25.692,6.141 33.485,15.689 v 0 c 1.172,1.429 17.746,21.253 34.777,21.253 v 0 c 16.837,0 37.569,-10.275 40.077,-11.922 v 0 l -41.836,50.389 c -5.162,3.423 -10.723,6.475 -16.712,8.915 v 0 c -9.388,3.824 -18.449,5.297 -26.834,5.298 v 0 c -18.152,0 -33.145,-6.9 -41.491,-11.787"
         id="path92"
         inkscape:connector-curvature="0" /></clipPath><linearGradient
       x1="0"
       y1="0"
       x2="1"
       y2="0"
       gradientUnits="userSpaceOnUse"
       gradientTransform="matrix(-309.61237,7.0768542,7.0768542,309.61237,380.22989,475.53891)"
       spreadMethod="pad"
       id="linearGradient104"><stop
         style="stop-opacity:1;stop-color:#c7ffff"
         offset="0"
         id="stop100" /><stop
         style="stop-opacity:1;stop-color:#00c2ff"
         offset="1"
         id="stop102" /></linearGradient><clipPath
       clipPathUnits="userSpaceOnUse"
       id="clipPath114"><path
         d="m 321.061,457.333 c 7.503,-5.637 15.685,-9.858 24.162,-11.069 v 0 c 33.729,-4.819 33.926,26.859 33.926,26.859 v 0 c 0,0 -11.309,-12.723 -32.513,-7.068 v 0 c -26.323,7.019 -61.09,34.914 -64.021,37.291 v 0 z"
         id="path112"
         inkscape:connector-curvature="0" /></clipPath><linearGradient
       x1="0"
       y1="0"
       x2="1"
       y2="0"
       gradientUnits="userSpaceOnUse"
       gradientTransform="matrix(-309.61237,7.0768542,7.0768542,309.61237,380.17441,473.11176)"
       spreadMethod="pad"
       id="linearGradient124"><stop
         style="stop-opacity:1;stop-color:#c7ffff"
         offset="0"
         id="stop120" /><stop
         style="stop-opacity:1;stop-color:#00c2ff"
         offset="1"
         id="stop122" /></linearGradient><clipPath
       clipPathUnits="userSpaceOnUse"
       id="clipPath134"><path
         d="m 563.626,495.634 c 0,-18.432 15.55,-16.965 15.55,-16.965 v 0 c 0,0 -5.655,1.414 -5.655,8.482 v 0 c 0,7.068 4.948,9.896 9.895,9.896 v 0 c 4.948,0 9.895,-5.655 9.188,-12.016 v 0 c -0.706,-6.362 -1.413,-15.55 -15.549,-15.55 v 0 c -14.137,0 -18.377,7.068 -31.099,7.068 v 0 c -7.464,0 -10.552,-2.432 -15.824,-4.442 v 0 l 4.107,-4.915 27.931,-33.429 c 2.303,-0.445 4.667,-1.01 7.111,-1.742 v 0 c 28.271,-8.483 83.403,5.653 83.403,50.889 v 0 c 0,45.236 -45.236,46.65 -45.236,46.65 v 0 c -26.859,0 -43.822,-22.618 -43.822,-33.926"
         id="path132"
         inkscape:connector-curvature="0" /></clipPath><linearGradient
       x1="0"
       y1="0"
       x2="1"
       y2="0"
       gradientUnits="userSpaceOnUse"
       gradientTransform="matrix(284.84338,-33.615055,-33.615055,-284.84338,450.97214,496.66141)"
       spreadMethod="pad"
       id="linearGradient144"><stop
         style="stop-opacity:1;stop-color:#ffff72"
         offset="0"
         id="stop140" /><stop
         style="stop-opacity:1;stop-color:#ffbd00"
         offset="1"
         id="stop142" /></linearGradient><clipPath
       clipPathUnits="userSpaceOnUse"
       id="clipPath154"><path
         d="m 411.662,469.481 c 48.77,7.775 71.388,-21.911 91.179,-31.807 v 0 c 12.278,-6.138 24.013,-3.573 37.902,-2.766 v 0 l -28.911,34.602 c -18.043,0.601 -16.267,11.28 -47.866,11.28 v 0 c -32.513,0 -52.304,-11.309 -52.304,-11.309"
         id="path152"
         inkscape:connector-curvature="0" /></clipPath><linearGradient
       x1="0"
       y1="0"
       x2="1"
       y2="0"
       gradientUnits="userSpaceOnUse"
       gradientTransform="matrix(284.84338,-33.615055,-33.615055,-284.84338,446.97952,462.82925)"
       spreadMethod="pad"
       id="linearGradient164"><stop
         style="stop-opacity:1;stop-color:#ffff72"
         offset="0"
         id="stop160" /><stop
         style="stop-opacity:1;stop-color:#ffbd00"
         offset="1"
         id="stop162" /></linearGradient><clipPath
       clipPathUnits="userSpaceOnUse"
       id="clipPath174"><path
         d="m 392.875,426.436 -13.836,-7.961 -1.844,-25.309 -9.021,-22.619 -5.446,-41.779 -14.456,-10.212 -0.379,-16.53 4.712,5.639 2.441,2.923 10.894,13.038 28.912,34.602 8.325,9.964 21.043,25.186 -4.087,5.173 -3.087,42.931 -21.939,18.443 z"
         id="path172"
         inkscape:connector-curvature="0" /></clipPath><linearGradient
       x1="0"
       y1="0"
       x2="1"
       y2="0"
       gradientUnits="userSpaceOnUse"
       gradientTransform="matrix(14.153709,-199.92114,-199.92114,-14.153709,379.06641,446.44363)"
       spreadMethod="pad"
       id="linearGradient184"><stop
         style="stop-opacity:1;stop-color:#7aff8e"
         offset="0"
         id="stop180" /><stop
         style="stop-opacity:1;stop-color:#51743b"
         offset="1"
         id="stop182" /></linearGradient><clipPath
       clipPathUnits="userSpaceOnUse"
       id="clipPath194"><path
         d="m 426.792,371.957 -10.515,-12.584 -27.93,-33.428 -4.106,-4.915 -26.982,-32.293 -9.943,-11.899 -0.263,-11.477 47.395,-48.679 16.847,9.32 11.789,24.211 26.318,14.387 3.545,17.951 -11.159,32.226 -2.31,59.29 -5.308,6.719 z"
         id="path192"
         inkscape:connector-curvature="0" /></clipPath><linearGradient
       x1="0"
       y1="0"
       x2="1"
       y2="0"
       gradientUnits="userSpaceOnUse"
       gradientTransform="matrix(14.153709,-199.92114,-199.92114,-14.153709,387.74503,447.05807)"
       spreadMethod="pad"
       id="linearGradient204"><stop
         style="stop-opacity:1;stop-color:#7aff8e"
         offset="0"
         id="stop200" /><stop
         style="stop-opacity:1;stop-color:#51743b"
         offset="1"
         id="stop202" /></linearGradient><clipPath
       clipPathUnits="userSpaceOnUse"
       id="clipPath214"><path
         d="m 425.514,651.952 -10.182,-12.186 -27.045,-32.369 -3.976,-4.759 -26.128,-31.269 c 4.599,-14.251 9.966,-24.095 9.966,-39.747 v 0 c 0,-27.376 27.377,-50.647 27.377,-50.647 v 0 c -4.791,19.849 0.684,23.956 7.529,51.332 v 0 c 6.844,27.376 26.691,32.167 39.011,69.125 v 0 c 11.759,35.277 4.107,57.491 4.107,53.385 v 0 c 0,-4.106 -6.845,-12.32 -6.845,-12.32 v 0 c 0.638,8.081 -0.114,16.065 -1.838,23.788 v 0 z"
         id="path212"
         inkscape:connector-curvature="0" /></clipPath><linearGradient
       x1="0"
       y1="0"
       x2="1"
       y2="0"
       gradientUnits="userSpaceOnUse"
       gradientTransform="matrix(24.768988,283.07416,283.07416,-24.768988,393.74988,492.75095)"
       spreadMethod="pad"
       id="linearGradient224"><stop
         style="stop-opacity:1;stop-color:#ffff72"
         offset="0"
         id="stop220" /><stop
         style="stop-opacity:1;stop-color:#ff2d00"
         offset="1"
         id="stop222" /></linearGradient><clipPath
       clipPathUnits="userSpaceOnUse"
       id="clipPath234"><path
         d="m 392.788,712.308 c -2.286,-8.385 -14.757,-23.143 -25.364,-42.607 v 0 c 0,10e-4 0.001,0.005 0.001,0.005 v 0 c 0,0 -2.013,5.643 -0.644,16.593 v 0 c -9.583,-9.581 -17.49,-42.44 -14.905,-78.71 v 0 c 0.002,-0.023 0.003,-0.042 0.005,-0.066 v 0 c 0.28,-6.712 0.92,-12.584 1.796,-17.826 v 0 l 2.364,2.83 10.549,12.625 27.995,33.506 8.061,9.647 29.373,35.154 c -13.865,33.78 -42.021,59.106 -42.021,59.106 v 0 c 0,0 6.897,-15.2 2.79,-30.257"
         id="path232"
         inkscape:connector-curvature="0" /></clipPath><linearGradient
       x1="0"
       y1="0"
       x2="1"
       y2="0"
       gradientUnits="userSpaceOnUse"
       gradientTransform="matrix(24.768988,283.07416,283.07416,-24.768988,377.47363,494.17511)"
       spreadMethod="pad"
       id="linearGradient244"><stop
         style="stop-opacity:1;stop-color:#ffff72"
         offset="0"
         id="stop240" /><stop
         style="stop-opacity:1;stop-color:#ff2d00"
         offset="1"
         id="stop242" /></linearGradient><clipPath
       clipPathUnits="userSpaceOnUse"
       id="clipPath254"><path
         d="M 0,800 H 800 V 0 H 0 Z"
         id="path252"
         inkscape:connector-curvature="0" /></clipPath></defs><sodipodi:namedview
     pagecolor="#ffffff"
     bordercolor="#666666"
     borderopacity="1"
     objecttolerance="10"
     gridtolerance="10"
     guidetolerance="10"
     inkscape:pageopacity="0"
     inkscape:pageshadow="2"
     inkscape:window-width="1366"
     inkscape:window-height="711"
     id="namedview66"
     showgrid="false"
     scale-x="0.3"
     fit-margin-top="0"
     fit-margin-left="0"
     fit-margin-right="0"
     fit-margin-bottom="0"
     inkscape:zoom="0.16937416"
     inkscape:cx="-797.54508"
     inkscape:cy="1227.2811"
     inkscape:window-x="0"
     inkscape:window-y="0"
     inkscape:window-maximized="1"
     inkscape:current-layer="g72" /><g
     id="g72"
     inkscape:groupmode="layer"
     inkscape:label="POM LOGO by ZD STUDIO"
     transform="matrix(1.3333333,0,0,-1.3333333,-196.42133,990.08664)"><g
       id="g88"
       style="fill:#0066ff"><g
         id="g90"
         clip-path="url(#clipPath94)"
         style="fill:#0066ff"><g
           id="g96"
           style="fill:#0066ff"><g
             id="g98"
             style="fill:#0066ff"><path
               d="m 171.346,512.648 c -14.222,-6.63 -24.03,-20.651 -24.03,-36.877 v 0 c 0,-22.621 19.057,-40.958 42.564,-40.958 v 0 c 13.595,0 25.692,6.141 33.485,15.689 v 0 c 1.172,1.429 17.746,21.253 34.777,21.253 v 0 c 16.837,0 37.569,-10.275 40.077,-11.922 v 0 l -41.836,50.389 c -5.162,3.423 -10.723,6.475 -16.712,8.915 v 0 c -9.388,3.824 -18.449,5.297 -26.834,5.298 v 0 c -18.152,0 -33.145,-6.9 -41.491,-11.787"
               style="fill:#0066ff;stroke:none"
               id="path106"
               inkscape:connector-curvature="0" /></g></g></g></g><g
       id="g108"
       style="fill:#0066ff"><g
         id="g110"
         clip-path="url(#clipPath114)"
         style="fill:#0066ff"><g
           id="g116"
           style="fill:#0066ff"><g
             id="g118"
             style="fill:#0066ff"><path
               d="m 321.061,457.333 c 7.503,-5.637 15.685,-9.858 24.162,-11.069 v 0 c 33.729,-4.819 33.926,26.859 33.926,26.859 v 0 c 0,0 -11.309,-12.723 -32.513,-7.068 v 0 c -26.323,7.019 -61.09,34.914 -64.021,37.291 v 0 z"
               style="fill:#0066ff;stroke:none"
               id="path126"
               inkscape:connector-curvature="0" /></g></g></g></g><g
       id="g128"
       style="fill:#d4aa00"><g
         id="g130"
         clip-path="url(#clipPath134)"
         style="fill:#d4aa00"><g
           id="g136"
           style="fill:#d4aa00"><g
             id="g138"
             style="fill:#d4aa00"><path
               d="m 563.626,495.634 c 0,-18.432 15.55,-16.965 15.55,-16.965 v 0 c 0,0 -5.655,1.414 -5.655,8.482 v 0 c 0,7.068 4.948,9.896 9.895,9.896 v 0 c 4.948,0 9.895,-5.655 9.188,-12.016 v 0 c -0.706,-6.362 -1.413,-15.55 -15.549,-15.55 v 0 c -14.137,0 -18.377,7.068 -31.099,7.068 v 0 c -7.464,0 -10.552,-2.432 -15.824,-4.442 v 0 l 4.107,-4.915 27.931,-33.429 c 2.303,-0.445 4.667,-1.01 7.111,-1.742 v 0 c 28.271,-8.483 83.403,5.653 83.403,50.889 v 0 c 0,45.236 -45.236,46.65 -45.236,46.65 v 0 c -26.859,0 -43.822,-22.618 -43.822,-33.926"
               style="fill:#d4aa00;stroke:none"
               id="path146"
               inkscape:connector-curvature="0" /></g></g></g></g><g
       id="g148"
       style="fill:#d4aa00"><g
         id="g150"
         clip-path="url(#clipPath154)"
         style="fill:#d4aa00"><g
           id="g156"
           style="fill:#d4aa00"><g
             id="g158"
             style="fill:#d4aa00"><path
               d="m 411.662,469.481 c 48.77,7.775 71.388,-21.911 91.179,-31.807 v 0 c 12.278,-6.138 24.013,-3.573 37.902,-2.766 v 0 l -28.911,34.602 c -18.043,0.601 -16.267,11.28 -47.866,11.28 v 0 c -32.513,0 -52.304,-11.309 -52.304,-11.309"
               style="fill:#d4aa00;stroke:none"
               id="path166"
               inkscape:connector-curvature="0" /></g></g></g></g><g
       id="g168"
       style="fill:#445016"><g
         id="g170"
         clip-path="url(#clipPath174)"
         style="fill:#445016"><g
           id="g176"
           style="fill:#445016"><g
             id="g178"
             style="fill:#445016"><path
               d="m 392.875,426.436 -13.836,-7.961 -1.844,-25.309 -9.021,-22.619 -5.446,-41.779 -14.456,-10.212 -0.379,-16.53 4.712,5.639 2.441,2.923 10.894,13.038 28.912,34.602 8.325,9.964 21.043,25.186 -4.087,5.173 -3.087,42.931 -21.939,18.443 z"
               style="fill:#445016;stroke:none"
               id="path186"
               inkscape:connector-curvature="0" /></g></g></g></g><g
       id="g188"
       style="fill:#445016"><g
         id="g190"
         clip-path="url(#clipPath194)"
         style="fill:#445016"><g
           id="g196"
           style="fill:#445016"><g
             id="g198"
             style="fill:#445016"><path
               d="m 426.792,371.957 -10.515,-12.584 -27.93,-33.428 -4.106,-4.915 -26.982,-32.293 -9.943,-11.899 -0.263,-11.477 47.395,-48.679 16.847,9.32 11.789,24.211 26.318,14.387 3.545,17.951 -11.159,32.226 -2.31,59.29 -5.308,6.719 z"
               style="fill:#445016;stroke:none"
               id="path206"
               inkscape:connector-curvature="0" /></g></g></g></g><g
       id="g208"
       style="fill:#aa0000"><g
         id="g210"
         clip-path="url(#clipPath214)"
         style="fill:#aa0000"><g
           id="g216"
           style="fill:#aa0000"><g
             id="g218"
             style="fill:#aa0000"><path
               d="m 425.514,651.952 -10.182,-12.186 -27.045,-32.369 -3.976,-4.759 -26.128,-31.269 c 4.599,-14.251 9.966,-24.095 9.966,-39.747 v 0 c 0,-27.376 27.377,-50.647 27.377,-50.647 v 0 c -4.791,19.849 0.684,23.956 7.529,51.332 v 0 c 6.844,27.376 26.691,32.167 39.011,69.125 v 0 c 11.759,35.277 4.107,57.491 4.107,53.385 v 0 c 0,-4.106 -6.845,-12.32 -6.845,-12.32 v 0 c 0.638,8.081 -0.114,16.065 -1.838,23.788 v 0 z"
               style="fill:#aa0000;stroke:none"
               id="path226"
               inkscape:connector-curvature="0" /></g></g></g></g><g
       id="g228"
       style="fill:#aa0000"><g
         id="g230"
         clip-path="url(#clipPath234)"
         style="fill:#aa0000"><g
           id="g236"
           style="fill:#aa0000"><g
             id="g238"
             style="fill:#aa0000"><path
               d="m 392.788,712.308 c -2.286,-8.385 -14.757,-23.143 -25.364,-42.607 v 0 c 0,10e-4 0.001,0.005 0.001,0.005 v 0 c 0,0 -2.013,5.643 -0.644,16.593 v 0 c -9.583,-9.581 -17.49,-42.44 -14.905,-78.71 v 0 c 0.002,-0.023 0.003,-0.042 0.005,-0.066 v 0 c 0.28,-6.712 0.92,-12.584 1.796,-17.826 v 0 l 2.364,2.83 10.549,12.625 27.995,33.506 8.061,9.647 29.373,35.154 c -13.865,33.78 -42.021,59.106 -42.021,59.106 v 0 c 0,0 6.897,-15.2 2.79,-30.257"
               style="fill:#aa0000;stroke:none"
               id="path246"
               inkscape:connector-curvature="0" /></g></g></g></g><g
       id="g248"><g
         id="g250"
         clip-path="url(#clipPath254)"><g
           id="g256"
           transform="translate(168.8335,483.3774)"><path
             d="m 0,0 c -1.063,0 -2.138,0.3 -3.093,0.926 -2.606,1.711 -3.34,5.2 -1.637,7.811 0.454,0.696 11.315,17.069 28.061,19.064 3.109,0.373 5.914,-1.844 6.283,-4.946 0.37,-3.1 -1.844,-5.914 -4.946,-6.283 C 13.216,15.208 4.816,2.67 4.733,2.544 3.645,0.896 1.839,0 0,0"
             style="fill:#ffffff;fill-opacity:1;fill-rule:nonzero;stroke:none"
             id="path258"
             inkscape:connector-curvature="0" /></g><g
           id="g260"
           transform="translate(243.4731,142.3418)" /><g
           id="g264"
           transform="translate(385.9067,109.9697)" /><g
           id="g268"
           transform="translate(477.4219,96.0449)" /><g
           id="g272"
           transform="translate(222.293,57.4346)" /><g
           id="g276"
           transform="translate(248.6982,57.4346)" /><g
           id="g280"
           transform="translate(287.998,57.4346)" /><g
           id="g284"
           transform="translate(308.0039,57.4346)" /><g
           id="g288"
           transform="translate(338.6211,80.1768)" /><g
           id="g292"
           transform="translate(369.8042,57.4346)" /><g
           id="g296"
           transform="translate(393.9375,67.7266)" /><g
           id="g302"
           transform="translate(430.207,57.4346)" /><g
           id="g306"
           transform="translate(462.6191,57.4346)" /><g
           id="g310"
           transform="translate(499.0693,57.4346)" /><g
           id="g314"
           transform="translate(525.4746,57.4346)" /><g
           id="g318"
           transform="translate(564.7803,57.4346)" /></g></g></g></svg>